<?xml version="1.0" encoding="UTF-8"?>
<svg width="350" height="76.002" clip-rule="evenodd" fill-rule="evenodd" image-rendering="optimizeQuality" shape-rendering="geometricPrecision" text-rendering="geometricPrecision" version="1.1" viewBox="0 0 350 76.002" xml:space="preserve" xmlns="http://www.w3.org/2000/svg" xmlns:cc="http://creativecommons.org/ns#" xmlns:dc="http://purl.org/dc/elements/1.1/" xmlns:rdf="http://www.w3.org/1999/02/22-rdf-syntax-ns#"><script xmlns=""/><metadata><rdf:RDF><cc:Work rdf:about=""><dc:format>image/svg+xml</dc:format><dc:type rdf:resource="http://purl.org/dc/dcmitype/StillImage"/><dc:title/></cc:Work></rdf:RDF></metadata><g transform="matrix(.043554 0 0 .043554 0 .34843)"><path d="m7541 682c-184 0-305 140-309 386l572-79c-2-206-105-307-263-307zm493 383v-56c-6-308-187-502-488-502-331 0-532 252-532 613 0 377 208 616 581 616 162 0 320-35 412-83l-70-180c-81 44-208 72-326 72-199 0-337-107-361-320l784-110c1-17 2-34 2-51zm-1626 671c-138 0-283-37-368-83l81-184c61 37 191 77 280 77 129 0 215-64 215-162 0-107-90-149-210-193-158-59-335-131-335-353 0-195 151-331 414-331 142 0 261 35 344 83l-74 167c-53-33-158-70-243-70-125 0-195 66-195 151 0 107 88 145 204 188 164 61 346 129 346 359 0 213-162 351-458 351zm-767-618c-241 13-482 33-482 243 0 125 96 202 278 202 77 0 167-13 204-31zm-197 618c-340 0-510-138-510-370 0-329 351-388 708-407v-74c0-149-99-202-250-202-112 0-248 35-326 72l-61-164c94-42 254-83 412-83 283 0 454 110 454 401v745c-85 46-259 83-425 83zm-1203-1036c-66 0-142 15-188 39v776c35 15 103 31 171 31 191 0 331-131 331-434 0-259-123-412-313-412zm-31 1036c-153 0-305-37-397-83v-1661h239v570c57-26 149-48 230-48 305 0 510 219 510 581 0 445-230 642-583 642zm-876-24v-789c0-138-83-223-248-223-88 0-169 15-217 35v977h-239v-1122c118-48 269-83 453-83 331 0 491 145 491 394v811h-241zm-1189 0v-1181h241v1181zm120-1396c-79 0-142-61-142-136 0-74 64-136 142-136 79 0 142 61 142 136 0 74-64 136-142 136zm-841 382c-186 0-278 167-278 421s92 423 278 423 278-169 278-423-92-421-278-421zm0 1038c-335 0-519-265-519-616s184-613 519-613 519 263 519 613c0 351-184 616-519 616zm-905 0c-263 0-519-188-519-616 0-427 256-613 519-613 129 0 230 33 302 81l-79 173c-48-35-120-57-193-57-158 0-302 125-302 414s149 416 302 416c72 0 145-22 193-57l79 177c-74 50-173 81-302 81z" fill="#0082bf"/></g></svg>